<?xml version="1.0" encoding="utf-8"?>
<!-- Generator: Adobe Illustrator 18.0.0, SVG Export Plug-In . SVG Version: 6.00 Build 0)  -->
<!DOCTYPE svg PUBLIC "-//W3C//DTD SVG 1.1//EN" "http://www.w3.org/Graphics/SVG/1.1/DTD/svg11.dtd">
<svg version="1.1" id="Layer_1" xmlns="http://www.w3.org/2000/svg" xmlns:xlink="http://www.w3.org/1999/xlink" x="0px" y="0px"
	 width="320px" height="365.7px" viewBox="0 0 320 365.7" enable-background="new 0 0 320 365.7" xml:space="preserve">
<g id="logo">
	<g>
		<path fill="#73B4E5" d="M37.1,147.7C37.1,78.4,93.3,5.1,162.5,5.1S288,78.4,288,147.7s-56.1,125.4-125.4,125.4
			S37.1,216.9,37.1,147.7"/>
		<path fill="#FFFFFF" d="M281.9,107.2c0.8,2.8,1.6,5.6,2.3,8.4c2-0.4,3.8-0.9,5.6-1.7c2.3-1,5.2-1,7.7-1.2c5.7-0.7,11.4-1.4,17.2-2
			c0.8-0.7,0.4-2-0.5-2.6c-0.8-0.6-1.9-0.6-2.9-0.6c-8.6-0.1-17.2-0.2-25.8-0.2C284.3,107.3,283.1,107.3,281.9,107.2 M25.5,88.5
			c-6.8,0-13.7,0.4-20.5,1.1c-0.2,1.3,1.5,2,2.9,2.1c5.3,0.7,10.5,1.4,15.8,2l0,0c-0.6,0-0.2,3.5-0.1,3.8c0.5,1.7,1.7,2.5,3.2,3.5
			c2.3,1.7,4.2,1.9,7.1,1.9c3.7,0.1,7.3,0.1,11,0.1c0.8-2.5,1.7-4.9,2.6-7.4c-2.2,0.1-4.5,0.3-6.8,0.3c-2.9,0-5.8-0.4-8.1-1.9
			c2.3-0.6,4.1-2.9,4.1-5.3C32.7,88.6,29.1,88.5,25.5,88.5"/>
		<path fill="#B9DAF2" d="M122.7,89.1c-1.1,0-2.2,0.2-3.1,0.3c-5.6,1.2-10.9,3.8-16.6,3.8c-0.1,0-0.1,0-0.2,0C97.8,93,93,91,88,90.6
			c-0.5-0.1-1.1-0.1-1.6-0.1c-6.4,0-11.5,2.9-17.7,4.5c-1.6,0.4-3.2,0.5-5,0.5c-0.6,0-1.3,0-1.9,0s-1.3,0-1.9,0c-0.3,0-0.6,0-0.8,0
			c-3.4,0.1-6.8,0.2-10.2,0.2c-0.6,0-1.2,0-1.8,0.1c-0.9,2.4-1.8,4.9-2.6,7.4h0.1c0.4,0,0.8,0,1.1,0c2,0,4.4-0.2,6.7-0.2
			c1.7,0,3.4,0.2,4.8,0.7c3.3,1.1,6.1,2.6,9.7,3c1.5,0.2,3,0.3,4.5,0.3c2,0,4.1-0.2,6-0.5l4.9-7.6l2.9,6.1c4.6-1.1,9-2.5,13.6-3.5
			c0.7-0.2,1.4-0.2,2-0.2c1.8,0,2.9,0.7,1.3,2.6c-2,2.2-3.4,5.3-0.8,8c2.1,2.1,5.2,2.6,8.2,2.6c1,0,2-0.1,2.9-0.1
			c2.6-0.2,5.3-0.3,7.9-0.5c7.1-0.5,14.1-0.9,21.1-1.4l4.8-11.1c-0.2,0-0.3,0-0.5,0c-2.6,0-10.4,1.2-15.9,1.2c-2.5,0-4.5-0.2-5.3-1
			c-2.9-2.3,1.4-6.2,2.1-8.6C127.7,89.8,125.2,89.1,122.7,89.1 M265.5,87.6c-0.5,0-1,0.1-1.5,0.2c-2.2,0.5-4.1,1.7-6,2.9
			c-2.6,1.8-5,3.7-7.4,5.7c-1.4,1.1-2.6,2.3-4.2,3.2c-1.1,0.5-2.3,0.9-3.4,0.9c-0.6,0-1.1-0.1-1.7-0.3c-3.8-1.3-4.4-6.4-7.1-9.3
			c-1.9-2.1-4.7-3-7.7-3c-1.1,0-2.2,0.2-3.2,0.4c-3.8,0.8-7.2,2.9-10.7,4.7c-4.9,2.5-9.9,4.5-15.2,5.9c-2.6,0.8-5.3,1.4-8,1.8
			c-0.8,0.2-1.6,0.2-2.3,0.2s-1.5-0.1-2.3-0.1c-0.4,0-0.7-0.1-1.1-0.1l3.6,8.9c0.3,0,0.5,0,0.8,0c0.2,0,0.5,0,0.7,0
			c0.1,0,0.1,0,0.2,0c6.7,0,13.4-1.6,19.4-4.7c0.9-0.5,1.9-1,2.9-1.1c0.2,0,0.4-0.1,0.6-0.1c0.8,0,1.7,0.3,2.3,1
			c1.1,1.6-0.2,3.6-1.4,5.3c-1.1,1.6-2,3.4-1.7,5.3c0.5,3.3,4.4,4.9,7.7,5.1c0.4,0,0.8,0,1.2,0c5.8,0,11.4-2.3,16.6-4.9
			c5.3-2.7,10.9-6.3,16.9-7.4c-1.7,2.1-4.8,6.2-5.1,8.9c-0.3,2.9,2.3,3.5,4.7,3.5c1,0,1.9-0.1,2.6-0.2c6.2-1.1,12.6-2,18.8-3.1
			c3.2-0.5,6.4-0.8,9.6-1.4c-0.7-2.8-1.4-5.6-2.3-8.4c-0.6,0-1.3,0-1.9,0c-1.4,0-2.8,0-4.1,0.1c-0.2,0-0.4,0-0.6,0
			c-2.3,0-4.1-0.5-4.8-3.1c-0.5-1.7-0.2-3.5,0.2-5.2c0.2-0.8,0.4-1.5,0.5-2.3c0.5-2.5,0.8-5.3-0.9-7.2
			C269.1,88.2,267.3,87.6,265.5,87.6"/>
		<path fill="#F3F3F3" d="M13.9,81.7H112c0,0,0.5-23.5-34-8.8c0,0,5.3-85.8-37.6,0.4C40.3,73.3,19.8,66.6,13.9,81.7z"/>
		<path fill="#FFFFFF" d="M91.3,32.9c-3.7,0.8-7.4,2.1-11,3c0.9,0.8,2,1.3,3.1,1.7c0.7,0.2,1.4,0.4,2.2,0.5
			C87.4,36.3,89.3,34.6,91.3,32.9"/>
		<path fill="#B9DAF2" d="M165,26.9c-0.8,0-1.9,0.2-3,0.4c-6,1.3-11.5,2.2-17.7,2.5c-15.6,0.8-31.2,1.6-46.9,2.4
			c-0.5,0-0.9,0.1-1.4,0.1c-1.6,0.1-3.2,0.3-4.8,0.7c-2,1.7-3.9,3.4-5.8,5.2c1.1,0.2,2.3,0.3,3.5,0.3c2.3,0,4.6-0.2,6.8-0.5
			c2.6-0.3,5.6-0.8,8.4-0.8c1.1,0,2.3,0.1,3.3,0.3c3.2,0.6,5.9,0.9,9.1,0.9c2.1,0,25.2,0.7,25.2,1c-0.2,2.3-4.2,2.9-4.1,5.1
			c0.2,1.5,2,2,3.5,2c0.2,0,0.3,0,0.4,0c8-0.4,15.9-1.7,23.7-3.8c3.8-1.1,7.6-2.2,11.2-3.8c2.9-1.3,5.6-3.5,8.8-4.4
			c0.8-0.2,1.7-0.3,2.5-0.3c2.1,0,4.2,0.5,6.4,1.1c2.1,0.5,4.3,1.1,6.5,1.1c0.5,0,1.1,0,1.7-0.2c1.1-1.1,0.7-2.9-0.5-3.8
			c-1.8-1.6-4.1-2-6.5-2c-2.3,0-4.8,0.5-6.8,0.6c-6.2,0.6-12.6,1.1-18.9,1.1c-0.1,0-0.2,0-0.3,0C168.9,28.3,167.7,26.9,165,26.9"/>
		<circle fill="#F2F238" cx="227.9" cy="41.2" r="13.4"/>
		<path fill="#F3F3F3" d="M199.1,66.6h90.7c0,0,0.5-21.1-31.4-7.5c0,0,4.9-79.7-34.8,0C223.6,59.1,204.6,56.1,199.1,66.6z"/>
		<g>
			<g>
				<defs>
					<path id="SVGID_1_" d="M36.8,147.7C36.8,78.4,93,5.1,162.2,5.1s125.4,73.3,125.4,142.6s-56.1,125.4-125.4,125.4
						S36.8,216.9,36.8,147.7"/>
				</defs>
				<clipPath id="SVGID_2_">
					<use xlink:href="#SVGID_1_"  overflow="visible"/>
				</clipPath>
				<path clip-path="url(#SVGID_2_)" fill="#D7EFF6" d="M298.3,168.6c0-2,0.2-3.9,0.6-5.8c1.2-6.2,4-12.6,1.7-18.4
					c-1.7-4-5.5-6.7-9.6-7.8c-6.2-1.7-15.4-2.2-19.4,3.6c-2.6,3.8-4.7,10.1-10.2,10c-13.8-0.2-23.8-12.8-36.2-19
					c-12.5-6.2-27.3-5.8-41.2-4c-13.8,1.8-27.8,4.7-41.8,3.1c-10.7-1.3-21.5-5.4-32-2.9c-10.2,2.4-17.8,10.5-26.3,16.2
					c-2,1.4-4.2,2.9-6.5,3.8c-2.9,1.3-5.8,1.1-9,1.3c-6.9,0.2-13.9,0-20.8-0.7c-4.6-0.5-9.3-1.1-13.8,0c-4.5,1.1-8.9,4.2-9.7,8.8
					c-1.2,5.9,3.8,12.4,1.1,17.9c-1.5,3.1-4.8,4.5-7.9,5.5c-3.2,1-6.2,2.5-8.8,4.6c-4.9,4.1-6,9.8-3.8,15.7c1.1,2.8,3.2,7.1,6.2,8.4
					c3.5,1.4,9.9-0.1,13.6-0.2c9.9-0.5,19.7-0.8,29.6-1.1c19.7-0.7,39.4-1.2,59.1-1.5c39.4-0.7,78.8-0.8,118.3-0.1
					c7.8,0.2,15.7,0.3,23.5,0.5c3.4,0.1,6.3-0.9,9.7-0.9s6.7,0.7,9.9,1.7c4.9,1.4,9.7,3.2,14.7,3.5c5,0.4,10.5-1,13.8-4.8
					c2.7-3.2,3.5-7.8,2.9-12C305,184.5,298.2,178,298.3,168.6"/>
			</g>
			<g>
				<defs>
					<path id="SVGID_3_" d="M36.8,147.7C36.8,78.4,93,5.1,162.2,5.1s125.4,73.3,125.4,142.6s-56.1,125.4-125.4,125.4
						S36.8,216.9,36.8,147.7"/>
				</defs>
				<clipPath id="SVGID_4_">
					<use xlink:href="#SVGID_3_"  overflow="visible"/>
				</clipPath>
				<polyline clip-path="url(#SVGID_4_)" fill="#444646" points="9.7,210.8 296.9,212.5 256.1,131.2 216.9,183.1 165.8,56 
					116.4,170.5 82.4,98.7 9.7,210.8 				"/>
			</g>
			<g>
				<defs>
					<path id="SVGID_5_" d="M36.8,147.7C36.8,78.4,93,5.1,162.2,5.1s125.4,73.3,125.4,142.6s-56.1,125.4-125.4,125.4
						S36.8,216.9,36.8,147.7"/>
				</defs>
				<clipPath id="SVGID_6_">
					<use xlink:href="#SVGID_5_"  overflow="visible"/>
				</clipPath>
				<polyline clip-path="url(#SVGID_6_)" fill="#444646" points="310.9,303 7.3,303 7.3,200.6 310.9,200.6 310.9,303 				"/>
			</g>
		</g>
		<path fill="#303030" d="M165.8,56l39.4,209.6c0,0-24.4,12.8-72.1,4c-31.2-5.8-58.3-30.7-57.6-31.2C76.9,237,165.8,56,165.8,56z"/>
		<polygon fill="#F3F3F3" points="143.9,100.9 165.8,56 183.8,100.5 171.7,90.4 165,100.7 157.1,90.4 		"/>
		<path fill="#212121" d="M102.4,184.6l-14.4-56.8L71,116.4L38.1,167c0,0,6.6,43.3,37.5,71.3L102.4,184.6z"/>
		<path fill="#212121" d="M282.2,184.5c0,0-7.4,23-15.2,32.2c-7.7,9-29.3,31.1-29.3,31.1l14.4-78.2l14.3-18L282.2,184.5"/>
		<polygon fill="#F3F3F3" points="58,136.3 82.4,98.7 100.1,136.3 88.1,127.7 81.4,136.5 73.5,127.7 		"/>
		<polygon fill="#F3F3F3" points="232.4,162.7 256.1,131.2 276.7,172.2 262,160.5 252,169.7 247.3,160.5 		"/>
		<polygon fill="#FFFFFF" points="247.3,160.5 252,169.7 256.1,131.2 232.4,162.7 		"/>
		<polygon fill="#FFFFFF" points="165.8,56 171.7,90.4 183.8,100.5 		"/>
		<polyline fill="#FFFFFF" points="82.4,98.7 88.1,127.7 100.1,136.3 		"/>
		<polyline fill="#303030" points="237.6,247.9 216.9,183.1 232.4,162.7 247.3,160.5 252,169.7 237.6,247.9 		"/>
		<polyline fill="#FFFFFF" points="274.5,204.2 274.5,204.2 274.6,207.6 274.7,207.6 274.5,204.2 		"/>
		<polyline fill="#BBDBF2" points="274.5,204.2 274.5,204.2 274.5,204.2 274.5,204.2 274.5,204.2 		"/>
		<polyline fill="#6F6F6F" points="243.4,211.5 243.2,216.7 243.2,216.7 243.4,211.5 		"/>
		<g>
			<g>
				<defs>
					<path id="SVGID_7_" d="M37.1,147.7C37.1,78.4,93.3,5.1,162.5,5.1S288,78.4,288,147.7s-56.1,125.4-125.4,125.4
						S37.1,216.9,37.1,147.7"/>
				</defs>
				<clipPath id="SVGID_8_">
					<use xlink:href="#SVGID_7_"  overflow="visible"/>
				</clipPath>
				<path clip-path="url(#SVGID_8_)" fill="#A6CA56" d="M194.2,216.4c5.3-1.7,11-1.5,16.6-1.4c13.5,0.2,27.2-0.5,40.5,1.7
					c13.3,2.2,26.7,7.7,35.2,18.3c-3.2,18.9-16.2,35.1-32,45.8s-34.5,16.7-53,21.4c-30.3,7.6-62.8,12-92.5,2.1
					c-35.4-11.7-62.6-43.5-72.3-79.5c-2.1-7.9-2.7-17.9,4.1-22.4c4.4-2.9,10.4-2.1,15.3-0.2c5,2,9.4,5.1,14.4,6.7
					c10,3.1,20.9-0.2,30-5.1c7.1-3.8,14.4-9,22.3-7.7c5.2,0.8,9.6,4.2,13.3,7.9c5.3,5.3,9.8,11.3,15.6,16c5.7,4.7,13.2,8.2,20.5,7
					C180.3,225.6,186.5,219,194.2,216.4z"/>
			</g>
			<g>
				<defs>
					<path id="SVGID_9_" d="M37.1,147.7C37.1,78.4,93.3,5.1,162.5,5.1S288,78.4,288,147.7s-56.1,125.4-125.4,125.4
						S37.1,216.9,37.1,147.7"/>
				</defs>
				<clipPath id="SVGID_10_">
					<use xlink:href="#SVGID_9_"  overflow="visible"/>
				</clipPath>
				<path clip-path="url(#SVGID_10_)" fill="#B4D362" d="M234.5,226c5.3-1.7-29.3-11.1-23.7-10.9c13.5,0.2,27.2-0.5,40.5,1.7
					c13.3,2.2,26.7,7.7,35.2,18.3c-3.2,18.9-16.2,35.1-32,45.8c-9.7,6.6-20.5,11.4-31.6,15.2c-11.7,4-23,6.8-35.4,5.3
					c-6-0.8-12-2.9-16.5-7.1c-6.8-6.3-9-16-10.5-25.2c-1.6-9.2-3.2-18.9-9.3-25.8c-4.2-4.7-10.1-7.7-15.9-10.2
					c-5.9-2.5-11.9-4.8-16.9-8.7c-5-3.9-24.2-5.3-23.9-11.7c0.3-6.2,20.2-15.2,26.1-16.2c6.2-1.1,11.5,3.2,15.7,7.4
					c5.3,5.3,9.8,11.3,15.6,16c5.7,4.7,13.2,8.2,20.5,7C180.3,225.6,226.8,228.5,234.5,226z"/>
			</g>
		</g>
		<polygon fill="#E6E6E6" points="166.2,227 113.2,227 119.5,185 166.3,184.9 		"/>
		<rect x="158" y="163.1" fill="#F3F3F3" width="47" height="64"/>
		<rect x="200" y="161.2" fill="#E6E6E6" width="5" height="65.9"/>
		<polygon fill="#CECECE" points="162.5,227 146.7,227 153.1,185.7 162.5,185.7 		"/>
		<polygon fill="#88CEE3" points="186.6,227 158,227 158,163.1 193.4,163.1 		"/>
		<polygon fill="#39ADD1" points="158,175.4 158,172.3 177.4,172.3 		"/>
		<polygon fill="#39ADD1" points="158,183.5 158,180.3 177.4,180.3 		"/>
		<polygon fill="#39ADD1" points="158,190.7 158,187.5 177.4,187.5 		"/>
		<polygon fill="#88CEE3" points="136.1,227 113.2,227 119.7,184.2 139.9,184.2 		"/>
		<rect x="154.1" y="179.9" fill="#FFFFFF" width="39.3" height="0.8"/>
		<polygon fill="#F3F3F3" points="158.3,184.9 109.9,184.9 107.6,181.8 158.3,181.8 		"/>
		<rect x="154.1" y="171.8" fill="#FFFFFF" width="39.3" height="0.8"/>
		<rect x="154.1" y="187.2" fill="#FFFFFF" width="39.3" height="0.8"/>
		<polygon fill="#FFFFFF" points="205.1,164.2 155.9,164.2 153.7,161.2 206.6,161.2 		"/>
		<polygon fill="#39ADD1" points="158,199 158,195.8 177.4,195.8 		"/>
		<polygon fill="#39ADD1" points="158,207 158,203.9 177.4,203.9 		"/>
		<polygon fill="#39ADD1" points="158,214.3 158,211.1 177.4,211.1 		"/>
		<rect x="154.1" y="203.5" fill="#FFFFFF" width="39.3" height="0.8"/>
		<rect x="154.1" y="195.4" fill="#FFFFFF" width="39.3" height="0.8"/>
		<rect x="154.1" y="210.7" fill="#FFFFFF" width="39.3" height="0.8"/>
		<polygon fill="#39ADD1" points="158,221.2 158,218 177.4,218 		"/>
		<rect x="154.1" y="217.6" fill="#FFFFFF" width="39.3" height="0.8"/>
		<rect x="111.7" y="205.9" fill="#FFFFFF" width="33.3" height="0.8"/>
		<rect x="111.7" y="197.8" fill="#FFFFFF" width="33.3" height="0.8"/>
		<rect x="112" y="190.7" fill="#FFFFFF" width="33.3" height="0.8"/>
		<polygon fill="#39ADD1" points="117.1,203 117.7,198.7 137.1,198.7 		"/>
		<polygon fill="#39ADD1" points="117.6,196.3 118.2,192 137.6,192 		"/>
		<polygon fill="#39ADD1" points="118.7,189.7 119.3,185.4 138.7,185.4 		"/>
		<polygon fill="#39ADD1" points="115.9,211 116.5,206.7 135.9,206.7 		"/>
		<rect x="110" y="214.8" fill="#FFFFFF" width="33.3" height="0.8"/>
		<polygon fill="#39ADD1" points="114.2,219.9 114.8,215.5 134.3,215.5 		"/>
		<path fill="#C2ED5A" d="M64.4,226l195.5,1.1l-10.2,10.8L91.8,251.3C91.8,251.2,76.7,245.7,64.4,226z"/>
		<path fill="#FCC893" d="M253.7,233.6l-4,4.2L91.8,251.2c0,0-7.8-2.9-16.8-11.8"/>
		<path fill="#459BDC" d="M85.5,247.9l164.2-10c0,0-30.9,33.6-74.9,34.8C149.5,273.3,117.6,272.6,85.5,247.9z"/>
		<polygon fill="#FFFFFF" points="181.5,263.7 190.7,250.9 197.1,270.4 205.4,258.2 197.1,234.7 180.5,239.2 163.8,261.8 
			197.9,318.9 193.2,340.9 183.1,304.9 172,304.9 185.3,357.8 200.2,357.9 209.5,317.8 		"/>
		<polygon fill="#FFFFFF" points="109.4,250.2 109.4,250.4 97.2,310 81.6,237.9 63.2,244.9 69.9,357.8 84.2,357.8 83.4,318 
			94.4,357.9 94.7,353.8 94.4,358.5 100.4,358.5 109.4,317.8 109.4,357.8 123.2,357.8 128.5,256.4 		"/>
		<g>
			<polygon fill="none" points="146.2,315.8 152.4,314.7 148.2,299.1 			"/>
			<path fill="#FFFFFF" d="M164,358.5h12.4l-22.3-107.4l0,0l0-0.3l-16.9,6.2l-8.7,101.3H141l3.5-28.6c3.3-1.8,7.2-4,10.4-5.8
				L164,358.5z M146.2,315.8l2-16.7l4.1,15.6L146.2,315.8z"/>
		</g>
		<path fill="#FFFFFF" d="M237.6,234.7V314l-12.2,2.1l2.4-74.8l-18.4,8.1l4.1,106.6h10.6l1-29.9c3.9-2.1,8.8-4.7,12.5-6.6v38.3h13.8
			l5.3-116.8L237.6,234.7z"/>
	</g>
</g>
</svg>
