<svg xmlns="http://www.w3.org/2000/svg" xmlns:xlink="http://www.w3.org/1999/xlink" width="400" height="200" viewBox="0 0 2039 1955">
<defs><path id="Petals" d="M2018,985 c0,16-3,32-8,47-40,124-128,170-205,198 33,50,65,110,65,187 0,29-4,60-16,95-24,75-107,122-179,122-15,0-30-3-44-7-165-54-235-187-453-479-13,12-28,23-43,32 211,298,315,406,315,579 0,81-83,176-179,176-131,0-201-70-252-134-51,64-121,134-252,134-96,0-179-95-179-176 0-173,104-281,315-579-15-9-30-20-43-32-218,292-288,425-453,479-14,4-29,7-44,7-72,0-155-47-179-122-12-35-16-66-16-95 0-77,32-137,65-187-77-28-165-74-205-198-5-15-8-31-8-47 0-78,56-157,120-178 40-13,79-19,119-19 125,0,266,58,529,140 4-17,10-35,17-51-344-116-493-142-595-283-19-26-29-61-29-98 0-156,151-207,239-207 41,0,79,8,113,18 4-82,20-180,126-257 28-21,63-30,98-30 60,0,120,26,150,67 79,109,85,227,85,432 0,35-1,72-1,112 0,35,1,71,1,110 9-1,18-1,27-1 9,0,18,0,27,1 0-39,1-75,1-110 0-40-1-77-1-112 0-205,6-323,85-432 30-41,90-67,150-67 35,0,70,9,98,30 106,77,122,175,126,257 34-10,72-18,113-18 95,0,239,55,239,207 0,37-10,72-29,98-102,141-251,167-595,283 7,16,13,34,17,51 263-82,404-140,529-140 40,0,79,6,119,19 64,21,120,100,120,178Z"/></defs>
<g transform="translate(0,1955)scale(1,-1)"><use xlink:href="#Petals" fill="#ff6060"/>
<circle cx="1019" cy="975" r="182.4" fill="none" stroke-width="102" stroke="#ffbb22"/>
<use xlink:href="#Petals" fill="none" stroke="#000000" stroke-width="5"/></g></svg>
